<svg viewBox="0 0 200 200" width="200" height="200" xmlns="http://www.w3.org/2000/svg">
  <!-- Background -->
  <rect width="200" height="200" rx="24" fill="#EBF3FF"/>

  <!-- Grid lines -->
  <g stroke="#D6E9FF" stroke-width="1">
    <line x1="30" y1="52"  x2="178" y2="52"/>
    <line x1="30" y1="86"  x2="178" y2="86"/>
    <line x1="30" y1="120" x2="178" y2="120"/>
    <line x1="70"  y1="28" x2="70"  y2="168"/>
    <line x1="104" y1="28" x2="104" y2="168"/>
    <line x1="138" y1="28" x2="138" y2="168"/>
  </g>

  <!-- Axes -->
  <line x1="28" y1="168" x2="180" y2="168" stroke="#4D94FF" stroke-width="2.5" stroke-linecap="round"/>
  <line x1="28" y1="26"  x2="28"  y2="168" stroke="#4D94FF" stroke-width="2.5" stroke-linecap="round"/>

  <!-- Axis arrows -->
  <polygon points="180,168 174,164 174,172" fill="#4D94FF"/>
  <polygon points="28,26 23.5,33 32.5,33"   fill="#4D94FF"/>

  <!-- Bell curve fill -->
  <path d="M 32,167 C 36,161 44,148 56,128 Q 66,108 76,84 Q 84,64 92,50 Q 96,42 104,40 Q 112,42 116,50 Q 124,64 132,84 Q 142,108 152,128 C 164,148 172,161 176,167 Z"
        fill="#B3D1FF" opacity="0.3"/>

  <!-- Bell curve line -->
  <path d="M 32,167 C 36,161 44,148 56,128 Q 66,108 76,84 Q 84,64 92,50 Q 96,42 104,40 Q 112,42 116,50 Q 124,64 132,84 Q 142,108 152,128 C 164,148 172,161 176,167"
        fill="none" stroke="#0066FF" stroke-width="3" stroke-linecap="round" stroke-linejoin="round"/>

  <!-- Mean dashed line -->
  <line x1="104" y1="40" x2="104" y2="167" stroke="#4D94FF" stroke-width="1.3" stroke-dasharray="4,3" opacity="0.5"/>

  <!-- Scatter data points -->
  <circle cx="40"  cy="156" r="5" fill="#4D94FF" opacity="0.8"/>
  <circle cx="60"  cy="130" r="5" fill="#4D94FF" opacity="0.85"/>
  <circle cx="78"  cy="88"  r="5" fill="#0066FF"  opacity="0.9"/>
  <circle cx="104" cy="42"  r="5" fill="#0066FF"/>
  <circle cx="130" cy="86"  r="5" fill="#0066FF"  opacity="0.9"/>
  <circle cx="148" cy="128" r="5" fill="#4D94FF"  opacity="0.85"/>
  <circle cx="168" cy="155" r="5" fill="#4D94FF"  opacity="0.8"/>

  <!-- Sigma symbol -->
  <text x="152" y="64" font-size="38" font-weight="700" fill="#0066FF"
        font-family="Georgia, Times New Roman, serif" opacity="0.88">σ</text>
</svg>
