<svg xmlns="http://www.w3.org/2000/svg" xmlns:xlink="http://www.w3.org/1999/xlink" width="472" zoomAndPan="magnify" viewBox="0 0 354 353.999987" height="472" preserveAspectRatio="xMidYMid meet" version="1.0"><rect x="-35.4" width="424.8" fill="#ffffff" y="-35.399999" height="424.799984" fill-opacity="1"/><rect x="-35.4" width="424.8" fill="#ffffff" y="-35.399999" height="424.799984" fill-opacity="1"/><path fill="#e85984" d="M 2.339844 51.441406 C 21.355469 39.078125 40.402344 26.773438 59.375 14.355469 C 59.339844 102.132812 59.4375 189.914062 59.332031 277.6875 C 51.878906 282.652344 44.292969 287.410156 36.847656 292.394531 C 27.25 298.367188 17.777344 304.554688 8.382812 310.855469 C 6.53125 312.148438 4.539062 313.214844 2.453125 314.082031 C 2.367188 226.539062 2.578125 138.984375 2.339844 51.441406 Z M 2.339844 51.441406 " fill-opacity="1" fill-rule="nonzero"/><path fill="#e51050" d="M 59.375 14.355469 C 143.28125 14.367188 227.191406 14.339844 311.097656 14.367188 C 319.851562 14.480469 328.289062 21.375 329.007812 30.320312 C 329.34375 46.042969 328.785156 61.792969 329.28125 77.527344 C 329.46875 137.71875 329.308594 197.910156 329.363281 258.101562 C 329.238281 264.6875 329.671875 271.28125 329.140625 277.855469 C 301.039062 278.140625 272.921875 277.890625 244.808594 277.972656 C 186.320312 277.972656 127.832031 277.972656 69.34375 277.980469 C 66.003906 278.035156 62.652344 278.050781 59.332031 277.6875 C 59.4375 189.914062 59.339844 102.132812 59.375 14.355469 M 174.640625 69.105469 C 169.066406 85.21875 164.617188 101.714844 159.433594 117.953125 C 149.757812 149.640625 140.070312 181.324219 130.386719 213.011719 C 129.488281 215.539062 128.738281 218.125 128.300781 220.777344 C 137.464844 220.917969 146.648438 220.988281 155.808594 220.75 C 159.328125 208.5625 162.898438 196.394531 166.292969 184.171875 C 166.628906 183.089844 167.066406 182.050781 167.488281 181.015625 C 184.867188 181.058594 202.253906 180.785156 219.632812 181.15625 C 223.808594 194.390625 227.777344 207.695312 232.207031 220.839844 C 241.574219 220.890625 250.953125 220.953125 260.320312 220.785156 C 254.761719 202.144531 248.433594 183.746094 242.65625 165.175781 C 232.234375 133.195312 222.195312 101.09375 211.710938 69.140625 C 199.367188 68.839844 186.984375 68.902344 174.640625 69.105469 Z M 174.640625 69.105469 " fill-opacity="1" fill-rule="nonzero"/><path fill="#e51050" d="M 192.816406 88.808594 C 194.609375 93.089844 195.316406 97.71875 196.761719 102.113281 C 202.058594 120.984375 207.671875 139.78125 212.746094 158.722656 C 199.722656 158.902344 186.675781 158.910156 173.640625 158.722656 C 179.648438 135.324219 186.675781 112.183594 192.816406 88.808594 Z M 192.816406 88.808594 " fill-opacity="1" fill-rule="nonzero"/><path fill="#231f20" d="M 2.109375 63.992188 C 2.199219 59.808594 1.808594 55.605469 2.339844 51.441406 C 2.578125 138.984375 2.367188 226.539062 2.453125 314.082031 L 2.417969 314.976562 C 1.746094 312.308594 2.136719 309.550781 2.101562 306.847656 C 2.109375 225.898438 2.101562 144.941406 2.109375 63.992188 Z M 2.109375 63.992188 " fill-opacity="1" fill-rule="nonzero"/><path fill="#ffffff" d="M 174.640625 69.105469 C 186.984375 68.902344 199.367188 68.839844 211.710938 69.140625 C 222.195312 101.09375 232.234375 133.195312 242.65625 165.175781 C 248.433594 183.746094 254.761719 202.144531 260.320312 220.785156 C 250.953125 220.953125 241.574219 220.890625 232.207031 220.839844 C 227.777344 207.695312 223.808594 194.390625 219.632812 181.15625 C 202.253906 180.785156 184.867188 181.058594 167.488281 181.015625 C 167.066406 182.050781 166.628906 183.089844 166.292969 184.171875 C 162.898438 196.394531 159.328125 208.5625 155.808594 220.75 C 146.648438 220.988281 137.464844 220.917969 128.300781 220.777344 C 128.738281 218.125 129.488281 215.539062 130.386719 213.011719 C 140.070312 181.324219 149.757812 149.640625 159.433594 117.953125 C 164.617188 101.714844 169.066406 85.21875 174.640625 69.105469 M 192.816406 88.808594 C 186.675781 112.183594 179.648438 135.324219 173.640625 158.722656 C 186.675781 158.910156 199.722656 158.902344 212.746094 158.722656 C 207.671875 139.78125 202.058594 120.984375 196.761719 102.113281 C 195.316406 97.71875 194.609375 93.089844 192.816406 88.808594 Z M 192.816406 88.808594 " fill-opacity="1" fill-rule="nonzero"/><path fill="#770829" d="M 329.28125 77.527344 C 336.769531 76.605469 344.363281 77.074219 351.890625 77.214844 C 352.269531 97.027344 351.941406 116.851562 352.046875 136.671875 C 352.046875 199.894531 352.058594 263.125 352.046875 326.347656 C 352.003906 331.054688 352.214844 335.761719 351.898438 340.46875 C 254.390625 340.628906 156.882812 340.460938 59.375 340.546875 C 53.589844 340.53125 47.234375 340 42.742188 335.929688 C 39.375 332.765625 36.757812 328.40625 36.867188 323.652344 C 36.839844 313.230469 36.855469 302.816406 36.847656 292.394531 C 44.292969 287.410156 51.878906 282.652344 59.332031 277.6875 C 62.652344 278.050781 66.003906 278.035156 69.34375 277.980469 C 127.832031 277.972656 186.320312 277.972656 244.808594 277.972656 C 272.921875 277.890625 301.039062 278.140625 329.140625 277.855469 C 329.671875 271.28125 329.238281 264.6875 329.363281 258.101562 C 329.308594 197.910156 329.46875 137.71875 329.28125 77.527344 Z M 329.28125 77.527344 " fill-opacity="1" fill-rule="nonzero"/></svg>