<svg xmlns="http://www.w3.org/2000/svg" xmlns:xlink="http://www.w3.org/1999/xlink" width="472" zoomAndPan="magnify" viewBox="0 0 354 353.999987" height="472" preserveAspectRatio="xMidYMid meet" version="1.0"><rect x="-35.4" width="424.8" fill="#ffffff" y="-35.399999" height="424.799984" fill-opacity="1"/><rect x="-35.4" width="424.8" fill="#ffffff" y="-35.399999" height="424.799984" fill-opacity="1"/><path fill="#5d87a1" d="M 89.480469 270.640625 L 76.566406 270.640625 C 76.109375 248.84375 74.851562 228.351562 72.796875 209.148438 L 72.683594 209.148438 L 53.019531 270.640625 L 43.1875 270.640625 L 23.644531 209.148438 L 23.53125 209.148438 C 22.082031 227.585938 21.167969 248.082031 20.789062 270.640625 L 9.019531 270.640625 C 9.777344 243.210938 11.683594 217.492188 14.730469 193.484375 L 30.738281 193.484375 L 49.363281 250.179688 L 49.480469 250.179688 L 68.222656 193.484375 L 83.535156 193.484375 C 86.890625 221.605469 88.871094 247.324219 89.480469 270.640625 M 145.484375 213.714844 C 140.226562 242.25 133.289062 262.980469 124.679688 275.921875 C 117.972656 285.882812 110.625 290.871094 102.621094 290.871094 C 100.488281 290.871094 97.855469 290.226562 94.734375 288.949219 L 94.734375 282.066406 C 96.261719 282.289062 98.050781 282.414062 100.105469 282.414062 C 103.84375 282.414062 106.847656 281.382812 109.140625 279.324219 C 111.878906 276.8125 113.25 273.992188 113.25 270.867188 C 113.25 268.726562 112.179688 264.351562 110.050781 257.722656 L 95.878906 213.714844 L 108.566406 213.714844 L 118.738281 246.628906 C 121.023438 254.101562 121.976562 259.320312 121.59375 262.292969 C 127.15625 247.4375 131.042969 231.238281 133.253906 213.710938 L 145.484375 213.710938 Z M 145.484375 213.714844 " fill-opacity="1" fill-rule="nonzero"/><path fill="#f8981d" d="M 317.382812 270.640625 L 280.699219 270.640625 L 280.699219 193.484375 L 293.039062 193.484375 L 293.039062 261.144531 L 317.382812 261.144531 Z M 271.097656 272.503906 L 256.914062 265.507812 C 258.171875 264.472656 259.375 263.355469 260.457031 262.058594 C 266.484375 254.976562 269.492188 244.503906 269.492188 230.632812 C 269.492188 205.105469 259.476562 192.339844 239.433594 192.339844 C 229.609375 192.339844 221.941406 195.578125 216.460938 202.058594 C 210.4375 209.144531 207.429688 219.582031 207.429688 233.378906 C 207.429688 246.941406 210.09375 256.890625 215.425781 263.199219 C 220.304688 268.917969 227.660156 271.78125 237.492188 271.78125 C 241.160156 271.78125 244.527344 271.332031 247.59375 270.425781 L 266.0625 281.175781 Z M 225.148438 255.203125 C 222.023438 250.175781 220.460938 242.105469 220.460938 230.980469 C 220.460938 211.550781 226.363281 201.828125 238.179688 201.828125 C 244.355469 201.828125 248.882812 204.152344 251.777344 208.796875 C 254.894531 213.828125 256.464844 221.828125 256.464844 232.796875 C 256.464844 252.386719 250.558594 262.179688 238.75 262.179688 C 232.574219 262.183594 228.046875 259.863281 225.148438 255.203125 M 202.050781 249.253906 C 202.050781 255.796875 199.652344 261.167969 194.855469 265.371094 C 190.054688 269.558594 183.613281 271.65625 175.546875 271.65625 C 168 271.65625 160.683594 269.246094 153.601562 264.449219 L 156.917969 257.824219 C 163.011719 260.875 168.53125 262.394531 173.484375 262.394531 C 178.132812 262.394531 181.765625 261.363281 184.402344 259.320312 C 187.035156 257.269531 188.601562 254.390625 188.601562 250.753906 C 188.601562 246.167969 185.40625 242.25 179.542969 238.96875 C 174.136719 236 163.320312 229.792969 163.320312 229.792969 C 157.457031 225.519531 154.523438 220.933594 154.523438 213.375 C 154.523438 207.125 156.710938 202.074219 161.089844 198.234375 C 165.476562 194.378906 171.132812 192.457031 178.066406 192.457031 C 185.230469 192.457031 191.738281 194.375 197.605469 198.175781 L 194.628906 204.800781 C 189.613281 202.671875 184.664062 201.605469 179.78125 201.605469 C 175.824219 201.605469 172.769531 202.558594 170.648438 204.464844 C 168.503906 206.367188 167.183594 208.800781 167.183594 211.785156 C 167.183594 216.347656 170.449219 220.3125 176.472656 223.660156 C 181.953125 226.636719 193.039062 232.949219 193.039062 232.949219 C 199.050781 237.214844 202.050781 241.757812 202.050781 249.253906 " fill-opacity="1" fill-rule="nonzero"/><path fill="#5d87a1" d="M 332.871094 167.644531 C 325.410156 167.453125 319.636719 168.203125 314.785156 170.257812 C 313.386719 170.816406 311.160156 170.816406 310.964844 172.585938 C 311.722656 173.332031 311.808594 174.539062 312.464844 175.574219 C 313.582031 177.4375 315.53125 179.945312 317.3125 181.253906 C 319.265625 182.75 321.226562 184.234375 323.28125 185.539062 C 326.910156 187.78125 331.019531 189.085938 334.550781 191.324219 C 336.609375 192.621094 338.65625 194.304688 340.71875 195.703125 C 341.730469 196.449219 342.378906 197.660156 343.695312 198.128906 L 343.695312 197.84375 C 343.035156 197.003906 342.851562 195.792969 342.203125 194.859375 L 339.402344 192.160156 C 336.699219 188.523438 333.335938 185.351562 329.710938 182.75 C 326.726562 180.691406 320.199219 177.898438 318.988281 174.457031 L 318.800781 174.269531 C 320.851562 174.078125 323.28125 173.332031 325.230469 172.761719 C 328.402344 171.925781 331.296875 172.113281 334.550781 171.277344 C 336.046875 170.90625 337.53125 170.4375 339.035156 169.972656 L 339.035156 169.132812 C 337.347656 167.453125 336.144531 165.222656 334.371094 163.636719 C 329.625 159.535156 324.394531 155.527344 318.988281 152.167969 C 316.09375 150.300781 312.371094 149.097656 309.289062 147.507812 C 308.179688 146.945312 306.308594 146.667969 305.652344 145.734375 C 303.980469 143.683594 303.039062 140.984375 301.828125 138.558594 C 299.132812 133.433594 296.515625 127.75 294.1875 122.332031 C 292.507812 118.699219 291.484375 115.070312 289.433594 111.707031 C 279.824219 95.863281 269.390625 86.265625 253.355469 76.84375 C 249.910156 74.882812 245.8125 74.046875 241.429688 73.019531 L 234.4375 72.652344 C 232.945312 71.996094 231.449219 70.222656 230.148438 69.382812 C 224.828125 66.03125 211.128906 58.761719 207.214844 68.359375 C 204.695312 74.425781 210.945312 80.390625 213.089844 83.464844 C 214.675781 85.601562 216.730469 88.03125 217.835938 90.457031 C 218.492188 92.042969 218.679688 93.722656 219.335938 95.398438 C 220.828125 99.5 222.222656 104.066406 224.183594 107.894531 C 225.207031 109.84375 226.320312 111.894531 227.628906 113.664062 C 228.378906 114.695312 229.679688 115.152344 229.964844 116.835938 C 228.664062 118.695312 228.5625 121.496094 227.816406 123.828125 C 224.460938 134.359375 225.773438 147.40625 230.527344 155.148438 C 232.011719 157.480469 235.5625 162.609375 240.308594 160.644531 C 244.511719 158.96875 243.578125 153.652344 244.789062 148.996094 C 245.066406 147.871094 244.882812 147.132812 245.441406 146.390625 L 245.441406 146.574219 C 246.742188 149.183594 248.054688 151.695312 249.257812 154.308594 C 252.152344 158.875 257.1875 163.628906 261.382812 166.792969 C 263.617188 168.480469 265.382812 171.363281 268.183594 172.394531 L 268.183594 172.113281 L 267.996094 172.113281 C 267.429688 171.277344 266.601562 170.90625 265.859375 170.257812 C 264.175781 168.578125 262.316406 166.527344 261.011719 164.664062 C 257.101562 159.441406 253.644531 153.660156 250.574219 147.691406 C 249.070312 144.796875 247.777344 141.632812 246.566406 138.742188 C 246.003906 137.628906 246.003906 135.945312 245.066406 135.386719 C 243.664062 137.433594 241.621094 139.207031 240.597656 141.71875 C 238.824219 145.734375 238.640625 150.671875 237.980469 155.808594 L 237.613281 155.988281 C 234.644531 155.242188 233.609375 152.167969 232.484375 149.5625 C 229.691406 142.9375 229.222656 132.308594 231.644531 124.667969 C 232.292969 122.714844 235.101562 116.558594 233.980469 114.699219 C 233.417969 112.914062 231.550781 111.898438 230.527344 110.492188 C 229.324219 108.726562 228.007812 106.492188 227.167969 104.53125 C 224.933594 99.3125 223.808594 93.53125 221.402344 88.3125 C 220.273438 85.882812 218.320312 83.367188 216.738281 81.128906 C 214.960938 78.613281 213.007812 76.84375 211.605469 73.859375 C 211.140625 72.835938 210.488281 71.160156 211.234375 70.042969 C 211.417969 69.292969 211.796875 69.015625 212.539062 68.828125 C 213.746094 67.808594 217.199219 69.105469 218.410156 69.667969 C 221.863281 71.0625 224.753906 72.367188 227.640625 74.324219 C 228.945312 75.261719 230.34375 77.03125 232.019531 77.5 L 233.980469 77.5 C 236.957031 78.148438 240.3125 77.679688 243.117188 78.523438 C 248.054688 80.109375 252.527344 82.4375 256.539062 84.949219 C 268.75 92.695312 278.820312 103.695312 285.617188 116.835938 C 286.734375 118.976562 287.207031 120.9375 288.226562 123.171875 C 290.1875 127.746094 292.617188 132.40625 294.566406 136.878906 C 296.523438 141.257812 298.390625 145.730469 301.1875 149.371094 C 302.582031 151.324219 308.1875 152.351562 310.703125 153.378906 C 312.558594 154.214844 315.453125 154.957031 317.132812 155.980469 C 320.304688 157.9375 323.460938 160.179688 326.445312 162.328125 C 327.929688 163.445312 332.597656 165.777344 332.871094 167.644531 M 237.78125 86.632812 C 236.492188 86.617188 235.21875 86.773438 233.96875 87.101562 L 233.96875 87.289062 L 234.148438 87.289062 C 234.898438 88.777344 236.203125 89.8125 237.132812 91.113281 C 237.886719 92.605469 238.535156 94.089844 239.273438 95.582031 L 239.453125 95.394531 C 240.765625 94.464844 241.421875 92.972656 241.421875 90.734375 C 240.855469 90.074219 240.765625 89.433594 240.296875 88.777344 C 239.746094 87.84375 238.535156 87.382812 237.78125 86.632812 " fill-opacity="1" fill-rule="nonzero"/><path fill="#f8981d" d="M 341.75 270.628906 L 343.683594 270.628906 L 343.683594 261.175781 L 340.785156 261.175781 L 338.421875 267.628906 L 335.855469 261.175781 L 333.066406 261.175781 L 333.066406 270.628906 L 334.890625 270.628906 L 334.890625 263.4375 L 334.992188 263.4375 L 337.683594 270.628906 L 339.070312 270.628906 L 341.75 263.4375 Z M 326.191406 270.628906 L 328.238281 270.628906 L 328.238281 262.777344 L 330.910156 262.777344 L 330.910156 261.175781 L 323.40625 261.175781 L 323.40625 262.777344 L 326.1875 262.777344 Z M 326.191406 270.628906 " fill-opacity="1" fill-rule="nonzero"/></svg>